# xmcd CD database file
#
# Track frame offsets:
#	182
#	14997
#	29012
#	40882
#	53555
#	70275
#	87797
#	99765
#	118642
#	131177
#	145622
#	159955
#
# Disc length: 2329 seconds
#
# Revision: 0
# Processed by: cddbd v1.5.1PL2 Copyright (c) Steve Scherf et al.
# Submitted via: CDex 1.51
#
DISCID=9e09170c
DTITLE=Moe Bandy - Picture In A Frame
DYEAR=1994
DGENRE=Country
TTITLE0=Picture In A Frame
TTITLE1=Bandy The Rodeo Clown
TTITLE2=It's A Cheating Situation
TTITLE3=Soft Lights And Hard Country Music
TTITLE4=When Staying Together Hurts More Than Falling Apart
TTITLE5=Love Never Sleeps
TTITLE6=Don't Leave Me In The Nighttime
TTITLE7=Americana
TTITLE8=Beauty Lies In The Eyes Of The Beholder
TTITLE9=When A Heart Will Fall
TTITLE10=Someday Soon
TTITLE11=Till I'm Too Old To Die Young
EXTD=YEAR: 1994
EXTT0=
EXTT1=
EXTT2=
EXTT3=
EXTT4=
EXTT5=
EXTT6=
EXTT7=
EXTT8=
EXTT9=
EXTT10=
EXTT11=
PLAYORDER=
